<svg width="198.0962890625px" height="114.09499816894531px" xmlns="http://www.w3.org/2000/svg" viewBox="150.95185546875 17.952500915527345 198.0962890625 114.09499816894531" style="background: rgba(0, 0, 0, 0);" preserveAspectRatio="xMidYMid"><defs><filter id="editing-hole" x="-100%" y="-100%" width="300%" height="300%"><feFlood flood-color="#e3432c" result="black"></feFlood><feMorphology operator="dilate" radius="2" in="SourceGraphic" result="erode"></feMorphology><feGaussianBlur in="erode" stdDeviation="4" result="blur"></feGaussianBlur><feOffset in="blur" dx="2" dy="2" result="offset"></feOffset><feComposite operator="atop" in="offset" in2="black" result="merge"></feComposite><feComposite operator="in" in="merge" in2="SourceGraphic" result="inner-shadow"></feComposite></filter></defs><g filter="url(#editing-hole)"><g transform="translate(184.86094093322754, 88.844999)"><path d="M18.63-13.11L18.63-13.11L18.63-13.11Q18.16-12.08 17.60-10.64L17.60-10.64L17.60-10.64Q17.04-9.20 16.38-7.64L16.38-7.64L16.38-7.64Q15.72-6.08 14.98-4.54L14.98-4.54L14.98-4.54Q14.23-3.00 13.42-1.79L13.42-1.79L13.42-1.79Q12.60-0.59 11.73 0.17L11.73 0.17L11.73 0.17Q10.86 0.93 9.96 0.93L9.96 0.93L9.96 0.93Q9.20 0.93 8.72 0.70L8.72 0.70L8.72 0.70Q8.23 0.46 7.96 0.11L7.96 0.11L7.96 0.11Q7.69-0.24 7.58-0.67L7.58-0.67L7.58-0.67Q7.47-1.10 7.47-1.49L7.47-1.49L7.47-1.49Q7.47-2.08 7.65-2.69L7.65-2.69L7.65-2.69Q7.84-3.30 8.11-3.81L8.11-3.81L17.46-21.02L17.46-21.02Q18.07-22.09 18.62-22.71L18.62-22.71L18.62-22.71Q19.17-23.32 19.64-23.61L19.64-23.61L19.64-23.61Q20.12-23.90 20.48-23.96L20.48-23.96L20.48-23.96Q20.85-24.02 21.09-24.02L21.09-24.02L21.09-24.02Q21.53-24.02 21.90-23.72L21.90-23.72L21.90-23.72Q22.27-23.41 22.27-22.61L22.27-22.61L22.27-22.61Q22.27-21.83 21.85-20.46L21.85-20.46L21.85-20.46Q21.44-19.09 20.31-16.94L20.31-16.94L20.31-16.94Q22.22-17.09 24.07-17.59L24.07-17.59L24.07-17.59Q25.93-18.09 27.40-18.97L27.40-18.97L27.40-18.97Q28.88-19.85 29.79-21.11L29.79-21.11L29.79-21.11Q30.69-22.36 30.69-24.02L30.69-24.02L30.69-24.02Q30.69-25.49 30.21-26.82L30.21-26.82L30.21-26.82Q29.74-28.15 28.82-29.16L28.82-29.16L28.82-29.16Q27.91-30.18 26.56-30.77L26.56-30.77L26.56-30.77Q25.22-31.37 23.46-31.37L23.46-31.37L23.46-31.37Q21.07-31.37 19.35-30.92L19.35-30.92L19.35-30.92Q17.63-30.47 16.39-29.74L16.39-29.74L16.39-29.74Q15.16-29.00 14.33-28.05L14.33-28.05L14.33-28.05Q13.50-27.10 12.90-26.12L12.90-26.12L12.90-26.12Q12.30-25.15 11.84-24.19L11.84-24.19L11.84-24.19Q11.38-23.24 10.88-22.51L10.88-22.51L10.88-22.51Q10.38-21.78 9.74-21.33L9.74-21.33L9.74-21.33Q9.11-20.87 8.18-20.87L8.18-20.87L8.18-20.87Q6.98-20.87 6.41-21.48L6.41-21.48L6.41-21.48Q5.83-22.09 5.83-23.22L5.83-23.22L5.83-23.22Q5.83-24.34 6.45-25.67L6.45-25.67L6.45-25.67Q7.06-27.00 8.18-28.34L8.18-28.34L8.18-28.34Q9.30-29.69 10.90-30.92L10.90-30.92L10.90-30.92Q12.50-32.15 14.50-33.11L14.50-33.11L14.50-33.11Q16.50-34.06 18.86-34.63L18.86-34.63L18.86-34.63Q21.22-35.21 23.83-35.21L23.83-35.21L23.83-35.21Q26.27-35.21 28.53-34.51L28.53-34.51L28.53-34.51Q30.79-33.81 32.52-32.42L32.52-32.42L32.52-32.42Q34.25-31.03 35.29-28.94L35.29-28.94L35.29-28.94Q36.33-26.86 36.33-24.05L36.33-24.05L36.33-24.05Q36.33-21.48 35.10-19.42L35.10-19.42L35.10-19.42Q33.86-17.36 31.77-15.93L31.77-15.93L31.77-15.93Q29.69-14.50 26.95-13.73L26.95-13.73L26.95-13.73Q24.22-12.96 21.19-12.96L21.19-12.96L21.19-12.96Q20.56-12.96 19.91-12.99L19.91-12.99L19.91-12.99Q19.26-13.01 18.63-13.11ZM41.28-13.33L41.28-13.33L41.28-13.33Q40.14-13.33 39.06-12.74L39.06-12.74L39.06-12.74Q37.99-12.16 37.16-11.21L37.16-11.21L37.16-11.21Q36.33-10.25 35.84-9.07L35.84-9.07L35.84-9.07Q35.35-7.89 35.35-6.69L35.35-6.69L35.35-6.69Q35.35-6.20 35.41-5.68L35.41-5.68L35.41-5.68Q35.47-5.15 35.69-4.71L35.69-4.71L35.69-4.71Q35.91-4.27 36.32-3.98L36.32-3.98L36.32-3.98Q36.72-3.69 37.40-3.69L37.40-3.69L37.40-3.69Q37.94-3.69 38.66-4.16L38.66-4.16L38.66-4.16Q39.38-4.64 40.15-5.38L40.15-5.38L40.15-5.38Q40.92-6.13 41.65-7.02L41.65-7.02L41.65-7.02Q42.38-7.91 42.97-8.76L42.97-8.76L42.97-8.76Q43.55-9.62 43.92-10.30L43.92-10.30L43.92-10.30Q44.29-10.99 44.29-11.30L44.29-11.30L44.29-11.30Q44.29-11.77 43.97-12.15L43.97-12.15L43.97-12.15Q43.65-12.52 43.19-12.79L43.19-12.79L43.19-12.79Q42.72-13.06 42.20-13.20L42.20-13.20L42.20-13.20Q41.67-13.33 41.28-13.33ZM58.20-7.03L58.20-7.03L58.20-7.03Q57.76-6.62 57.03-5.88L57.03-5.88L57.03-5.88Q56.30-5.15 55.36-4.30L55.36-4.30L55.36-4.30Q54.42-3.44 53.36-2.58L53.36-2.58L53.36-2.58Q52.29-1.71 51.18-1.00L51.18-1.00L51.18-1.00Q50.07-0.29 49.00 0.16L49.00 0.16L49.00 0.16Q47.92 0.61 46.97 0.61L46.97 0.61L46.97 0.61Q46.12 0.61 45.51 0.24L45.51 0.24L45.51 0.24Q44.90-0.12 44.49-0.71L44.49-0.71L44.49-0.71Q44.09-1.29 43.90-2.04L43.90-2.04L43.90-2.04Q43.70-2.78 43.70-3.56L43.70-3.56L43.70-3.56Q43.70-4.08 43.77-4.58L43.77-4.58L43.77-4.58Q43.85-5.08 44.02-5.52L44.02-5.52L44.02-5.52Q43.26-4.49 42.30-3.41L42.30-3.41L42.30-3.41Q41.33-2.32 40.22-1.43L40.22-1.43L40.22-1.43Q39.11-0.54 37.90 0.04L37.90 0.04L37.90 0.04Q36.69 0.61 35.45 0.61L35.45 0.61L35.45 0.61Q34.81 0.61 33.97 0.35L33.97 0.35L33.97 0.35Q33.13 0.10 32.37-0.49L32.37-0.49L32.37-0.49Q31.62-1.07 31.10-2.00L31.10-2.00L31.10-2.00Q30.59-2.93 30.59-4.27L30.59-4.27L30.59-4.27Q30.59-5.27 30.90-6.67L30.90-6.67L30.90-6.67Q31.20-8.06 31.82-9.56L31.82-9.56L31.82-9.56Q32.45-11.06 33.41-12.52L33.41-12.52L33.41-12.52Q34.38-13.99 35.69-15.15L35.69-15.15L35.69-15.15Q37.01-16.31 38.70-17.03L38.70-17.03L38.70-17.03Q40.38-17.75 42.46-17.75L42.46-17.75L42.46-17.75Q43.53-17.75 44.34-17.48L44.34-17.48L44.34-17.48Q45.14-17.21 45.70-16.89L45.70-16.89L45.70-16.89Q46.34-16.50 46.83-16.04L46.83-16.04L46.83-16.04Q47.24-16.26 47.68-16.46L47.68-16.46L47.68-16.46Q48.05-16.63 48.45-16.76L48.45-16.76L48.45-16.76Q48.85-16.89 49.15-16.89L49.15-16.89L49.15-16.89Q50.07-16.89 50.66-16.38L50.66-16.38L50.66-16.38Q51.25-15.87 51.25-15.26L51.25-15.26L51.25-15.26Q51.25-15.09 51.22-14.99L51.22-14.99L51.22-14.99Q51.10-14.53 50.84-13.82L50.84-13.82L50.84-13.82Q50.59-13.11 50.27-12.24L50.27-12.24L50.27-12.24Q49.95-11.38 49.62-10.44L49.62-10.44L49.62-10.44Q49.29-9.50 49.02-8.59L49.02-8.59L49.02-8.59Q48.75-7.69 48.58-6.90L48.58-6.90L48.58-6.90Q48.41-6.10 48.41-5.54L48.41-5.54L48.41-5.54Q48.41-4.81 48.66-4.33L48.66-4.33L48.66-4.33Q48.90-3.86 49.49-3.86L49.49-3.86L49.49-3.86Q49.85-3.86 50.35-4.09L50.35-4.09L50.35-4.09Q50.85-4.32 51.44-4.71L51.44-4.71L51.44-4.71Q52.03-5.10 52.65-5.60L52.65-5.60L52.65-5.60Q53.27-6.10 53.86-6.62L53.86-6.62L53.86-6.62Q55.22-7.84 56.76-9.40L56.76-9.40L56.76-9.40Q57.15-9.72 57.52-9.72L57.52-9.72L57.52-9.72Q58.01-9.72 58.34-9.24L58.34-9.24L58.34-9.24Q58.67-8.76 58.67-8.18L58.67-8.18L58.67-8.18Q58.67-7.50 58.20-7.03ZM60.33-5.57L70.41-15.48L70.41-15.48Q71.09-16.02 71.57-16.30L71.57-16.30L71.57-16.30Q72.05-16.58 72.39-16.71L72.39-16.71L72.39-16.71Q72.73-16.85 73.01-16.87L73.01-16.87L73.01-16.87Q73.29-16.89 73.58-16.89L73.58-16.89L73.58-16.89Q74.10-16.89 74.32-16.52L74.32-16.52L74.32-16.52Q74.54-16.14 74.54-15.72L74.54-15.72L74.54-15.72Q74.54-15.38 74.41-15.09L74.41-15.09L68.95-3.69L68.95-3.69Q70.12-4.57 71.64-5.41L71.64-5.41L71.64-5.41Q73.17-6.25 74.57-6.92L74.57-6.92L74.57-6.92Q75.98-7.59 76.99-8.01L76.99-8.01L76.99-8.01Q78.00-8.42 78.15-8.42L78.15-8.42L78.15-8.42Q78.76-8.42 79.22-7.96L79.22-7.96L79.22-7.96Q79.69-7.50 79.69-6.79L79.69-6.79L79.69-6.79Q79.69-6.15 79.21-5.44L79.21-5.44L79.21-5.44Q78.74-4.74 77.54-4.08L77.54-4.08L77.54-4.08Q75.83-3.13 74.56-2.45L74.56-2.45L74.56-2.45Q73.29-1.78 72.31-1.25L72.31-1.25L72.31-1.25Q71.34-0.71 70.58-0.27L70.58-0.27L70.58-0.27Q69.82 0.17 69.15 0.63L69.15 0.63L69.15 0.63Q68.48 1.10 67.83 1.62L67.83 1.62L67.83 1.62Q67.19 2.15 66.43 2.86L66.43 2.86L66.43 2.86Q65.87 4.32 65.32 5.66L65.32 5.66L65.32 5.66Q64.77 7.01 64.32 8.03L64.32 8.03L64.32 8.03Q63.87 9.06 63.57 9.69L63.57 9.69L63.57 9.69Q63.28 10.33 63.26 10.38L63.26 10.38L63.26 10.38Q61.28 14.48 58.91 14.48L58.91 14.48L58.91 14.48Q57.93 14.48 57.32 13.83L57.32 13.83L57.32 13.83Q56.71 13.18 56.71 12.08L56.71 12.08L56.71 12.08Q56.71 11.06 56.97 10.05L56.97 10.05L56.97 10.05Q57.23 9.03 57.87 7.81L57.87 7.81L57.87 7.81Q58.52 6.59 59.58 5.09L59.58 5.09L59.58 5.09Q60.64 3.59 62.26 1.56L62.26 1.56L67.14-8.33L67.14-8.33Q63.48-3.98 60.50-1.68L60.50-1.68L60.50-1.68Q57.52 0.61 54.93 0.61L54.93 0.61L54.93 0.61Q54.10 0.61 53.52 0.23L53.52 0.23L53.52 0.23Q52.93-0.15 52.93-1.03L52.93-1.03L52.93-1.03Q52.93-2.25 53.52-3.78L53.52-3.78L53.52-3.78Q53.86-4.61 54.20-5.31L54.20-5.31L54.20-5.31Q54.54-6.01 54.91-6.70L54.91-6.70L54.91-6.70Q55.27-7.40 55.68-8.20L55.68-8.20L55.68-8.20Q56.08-9.01 56.56-10.02L56.56-10.02L56.56-10.02Q57.03-11.04 57.60-12.37L57.60-12.37L57.60-12.37Q58.18-13.70 58.89-15.48L58.89-15.48L58.89-15.48Q59.38-16.43 60.16-16.86L60.16-16.86L60.16-16.86Q60.94-17.29 61.67-17.29L61.67-17.29L61.67-17.29Q62.43-17.29 62.95-16.93L62.95-16.93L62.95-16.93Q63.48-16.58 63.48-15.99L63.48-15.99L63.48-15.99Q63.48-15.70 63.38-15.48L63.38-15.48L58.91-6.18L58.91-6.18Q58.57-5.47 58.57-5.05L58.57-5.05L58.57-5.05Q58.57-4.69 58.86-4.69L58.86-4.69L58.86-4.69Q59.13-4.69 59.55-4.96L59.55-4.96L59.55-4.96Q59.96-5.22 60.33-5.57L60.33-5.57ZM87.18-13.33L87.18-13.33L87.18-13.33Q86.04-13.33 84.96-12.74L84.96-12.74L84.96-12.74Q83.89-12.16 83.06-11.21L83.06-11.21L83.06-11.21Q82.23-10.25 81.74-9.07L81.74-9.07L81.74-9.07Q81.25-7.89 81.25-6.69L81.25-6.69L81.25-6.69Q81.25-6.20 81.31-5.68L81.31-5.68L81.31-5.68Q81.37-5.15 81.59-4.71L81.59-4.71L81.59-4.71Q81.81-4.27 82.21-3.98L82.21-3.98L82.21-3.98Q82.62-3.69 83.30-3.69L83.30-3.69L83.30-3.69Q83.84-3.69 84.56-4.16L84.56-4.16L84.56-4.16Q85.28-4.64 86.05-5.38L86.05-5.38L86.05-5.38Q86.82-6.13 87.55-7.02L87.55-7.02L87.55-7.02Q88.28-7.91 88.87-8.76L88.87-8.76L88.87-8.76Q89.45-9.62 89.82-10.30L89.82-10.30L89.82-10.30Q90.19-10.99 90.19-11.30L90.19-11.30L90.19-11.30Q90.19-11.77 89.87-12.15L89.87-12.15L89.87-12.15Q89.55-12.52 89.09-12.79L89.09-12.79L89.09-12.79Q88.62-13.06 88.10-13.20L88.10-13.20L88.10-13.20Q87.57-13.33 87.18-13.33ZM104.10-7.03L104.10-7.03L104.10-7.03Q103.66-6.62 102.93-5.88L102.93-5.88L102.93-5.88Q102.20-5.15 101.26-4.30L101.26-4.30L101.26-4.30Q100.32-3.44 99.26-2.58L99.26-2.58L99.26-2.58Q98.19-1.71 97.08-1.00L97.08-1.00L97.08-1.00Q95.97-0.29 94.90 0.16L94.90 0.16L94.90 0.16Q93.82 0.61 92.87 0.61L92.87 0.61L92.87 0.61Q92.02 0.61 91.41 0.24L91.41 0.24L91.41 0.24Q90.80-0.12 90.39-0.71L90.39-0.71L90.39-0.71Q89.99-1.29 89.79-2.04L89.79-2.04L89.79-2.04Q89.60-2.78 89.60-3.56L89.60-3.56L89.60-3.56Q89.60-4.08 89.67-4.58L89.67-4.58L89.67-4.58Q89.75-5.08 89.92-5.52L89.92-5.52L89.92-5.52Q89.16-4.49 88.20-3.41L88.20-3.41L88.20-3.41Q87.23-2.32 86.12-1.43L86.12-1.43L86.12-1.43Q85.01-0.54 83.80 0.04L83.80 0.04L83.80 0.04Q82.59 0.61 81.35 0.61L81.35 0.61L81.35 0.61Q80.71 0.61 79.87 0.35L79.87 0.35L79.87 0.35Q79.03 0.10 78.27-0.49L78.27-0.49L78.27-0.49Q77.51-1.07 77.00-2.00L77.00-2.00L77.00-2.00Q76.49-2.93 76.49-4.27L76.49-4.27L76.49-4.27Q76.49-5.27 76.79-6.67L76.79-6.67L76.79-6.67Q77.10-8.06 77.72-9.56L77.72-9.56L77.72-9.56Q78.34-11.06 79.31-12.52L79.31-12.52L79.31-12.52Q80.27-13.99 81.59-15.15L81.59-15.15L81.59-15.15Q82.91-16.31 84.59-17.03L84.59-17.03L84.59-17.03Q86.28-17.75 88.35-17.75L88.35-17.75L88.35-17.75Q89.43-17.75 90.23-17.48L90.23-17.48L90.23-17.48Q91.04-17.21 91.60-16.89L91.60-16.89L91.60-16.89Q92.24-16.50 92.72-16.04L92.72-16.04L92.72-16.04Q93.14-16.26 93.58-16.46L93.58-16.46L93.58-16.46Q93.95-16.63 94.35-16.76L94.35-16.76L94.35-16.76Q94.75-16.89 95.04-16.89L95.04-16.89L95.04-16.89Q95.97-16.89 96.56-16.38L96.56-16.38L96.56-16.38Q97.14-15.87 97.14-15.26L97.14-15.26L97.14-15.26Q97.14-15.09 97.12-14.99L97.12-14.99L97.12-14.99Q97.00-14.53 96.74-13.82L96.74-13.82L96.74-13.82Q96.48-13.11 96.17-12.24L96.17-12.24L96.17-12.24Q95.85-11.38 95.52-10.44L95.52-10.44L95.52-10.44Q95.19-9.50 94.92-8.59L94.92-8.59L94.92-8.59Q94.65-7.69 94.48-6.90L94.48-6.90L94.48-6.90Q94.31-6.10 94.31-5.54L94.31-5.54L94.31-5.54Q94.31-4.81 94.56-4.33L94.56-4.33L94.56-4.33Q94.80-3.86 95.39-3.86L95.39-3.86L95.39-3.86Q95.75-3.86 96.25-4.09L96.25-4.09L96.25-4.09Q96.75-4.32 97.34-4.71L97.34-4.71L97.34-4.71Q97.92-5.10 98.55-5.60L98.55-5.60L98.55-5.60Q99.17-6.10 99.76-6.62L99.76-6.62L99.76-6.62Q101.12-7.84 102.66-9.40L102.66-9.40L102.66-9.40Q103.05-9.72 103.42-9.72L103.42-9.72L103.42-9.72Q103.91-9.72 104.24-9.24L104.24-9.24L104.24-9.24Q104.57-8.76 104.57-8.18L104.57-8.18L104.57-8.18Q104.57-7.50 104.10-7.03ZM105.66-7.06L105.66-7.06L105.66-7.06Q105.40-6.49 105.14-5.75L105.14-5.75L105.14-5.75Q104.88-5.00 104.88-4.42L104.88-4.42L104.88-4.42Q104.88-4.05 105.03-3.83L105.03-3.83L105.03-3.83Q105.18-3.61 105.59-3.61L105.59-3.61L105.59-3.61Q106.10-3.61 106.87-3.92L106.87-3.92L106.87-3.92Q107.64-4.22 108.53-4.72L108.53-4.72L108.53-4.72Q109.42-5.22 110.39-5.87L110.39-5.87L110.39-5.87Q111.35-6.52 112.30-7.21L112.30-7.21L112.30-7.21Q113.26-7.91 114.12-8.61L114.12-8.61L114.12-8.61Q114.99-9.30 115.67-9.89L115.67-9.89L115.67-9.89Q115.87-10.06 116.14-10.13L116.14-10.13L116.14-10.13Q116.41-10.21 116.60-10.21L116.60-10.21L116.60-10.21Q117.09-10.21 117.41-9.86L117.41-9.86L117.41-9.86Q117.72-9.52 117.72-8.96L117.72-8.96L117.72-8.96Q117.72-8.45 117.38-7.81L117.38-7.81L117.38-7.81Q117.04-7.18 116.19-6.57L116.19-6.57L116.19-6.57Q114.62-5.13 113.04-3.83L113.04-3.83L113.04-3.83Q111.45-2.54 109.88-1.55L109.88-1.55L109.88-1.55Q108.30-0.56 106.75 0.02L106.75 0.02L106.75 0.02Q105.20 0.61 103.74 0.61L103.74 0.61L103.74 0.61Q102.73 0.61 102.06 0.34L102.06 0.34L102.06 0.34Q101.39 0.07 100.99-0.39L100.99-0.39L100.99-0.39Q100.59-0.85 100.42-1.49L100.42-1.49L100.42-1.49Q100.24-2.12 100.24-2.83L100.24-2.83L100.24-2.83Q100.24-4.03 100.60-5.29L100.60-5.29L100.60-5.29Q100.95-6.54 101.44-7.59L101.44-7.59L101.44-7.59Q102.29-9.50 103.17-11.38L103.17-11.38L103.17-11.38Q104.05-13.26 104.79-14.82L104.79-14.82L112.18-30.57L112.18-30.57Q112.62-31.52 113.37-31.91L113.37-31.91L113.37-31.91Q114.11-32.30 114.87-32.30L114.87-32.30L114.87-32.30Q115.63-32.30 116.25-31.88L116.25-31.88L116.25-31.88Q116.87-31.47 116.87-30.54L116.87-30.54L116.87-30.54Q116.87-30.10 116.66-29.61L116.66-29.61L116.66-29.61Q116.46-29.13 116.14-28.56L116.14-28.56L116.14-28.56Q115.53-27.42 114.69-25.76L114.69-25.76L114.69-25.76Q113.84-24.10 112.88-22.14L112.88-22.14L112.88-22.14Q111.91-20.19 110.90-18.08L110.90-18.08L110.90-18.08Q109.89-15.97 108.92-13.96L108.92-13.96L108.92-13.96Q107.96-11.96 107.12-10.17L107.12-10.17L107.12-10.17Q106.27-8.37 105.66-7.06ZM118.55-7.06L118.55-7.06L118.55-7.06Q118.29-6.49 118.03-5.75L118.03-5.75L118.03-5.75Q117.77-5.00 117.77-4.42L117.77-4.42L117.77-4.42Q117.77-4.05 117.92-3.83L117.92-3.83L117.92-3.83Q118.07-3.61 118.48-3.61L118.48-3.61L118.48-3.61Q118.99-3.61 119.76-3.92L119.76-3.92L119.76-3.92Q120.53-4.22 121.42-4.72L121.42-4.72L121.42-4.72Q122.31-5.22 123.28-5.87L123.28-5.87L123.28-5.87Q124.24-6.52 125.20-7.21L125.20-7.21L125.20-7.21Q126.15-7.91 127.01-8.61L127.01-8.61L127.01-8.61Q127.88-9.30 128.56-9.89L128.56-9.89L128.56-9.89Q128.76-10.06 129.03-10.13L129.03-10.13L129.03-10.13Q129.30-10.21 129.49-10.21L129.49-10.21L129.49-10.21Q129.98-10.21 130.30-9.86L130.30-9.86L130.30-9.86Q130.62-9.52 130.62-8.96L130.62-8.96L130.62-8.96Q130.62-8.45 130.27-7.81L130.27-7.81L130.27-7.81Q129.93-7.18 129.08-6.57L129.08-6.57L129.08-6.57Q127.51-5.13 125.93-3.83L125.93-3.83L125.93-3.83Q124.34-2.54 122.77-1.55L122.77-1.55L122.77-1.55Q121.19-0.56 119.64 0.02L119.64 0.02L119.64 0.02Q118.09 0.61 116.63 0.61L116.63 0.61L116.63 0.61Q115.63 0.61 114.95 0.34L114.95 0.34L114.95 0.34Q114.28 0.07 113.88-0.39L113.88-0.39L113.88-0.39Q113.48-0.85 113.31-1.49L113.31-1.49L113.31-1.49Q113.13-2.12 113.13-2.83L113.13-2.83L113.13-2.83Q113.13-4.03 113.49-5.29L113.49-5.29L113.49-5.29Q113.84-6.54 114.33-7.59L114.33-7.59L114.33-7.59Q115.19-9.50 116.06-11.38L116.06-11.38L116.06-11.38Q116.94-13.26 117.68-14.82L117.68-14.82L125.07-30.57L125.07-30.57Q125.51-31.52 126.26-31.91L126.26-31.91L126.26-31.91Q127.00-32.30 127.76-32.30L127.76-32.30L127.76-32.30Q128.52-32.30 129.14-31.88L129.14-31.88L129.14-31.88Q129.76-31.47 129.76-30.54L129.76-30.54L129.76-30.54Q129.76-30.10 129.55-29.61L129.55-29.61L129.55-29.61Q129.35-29.13 129.03-28.56L129.03-28.56L129.03-28.56Q128.42-27.42 127.58-25.76L127.58-25.76L127.58-25.76Q126.73-24.10 125.77-22.14L125.77-22.14L125.77-22.14Q124.80-20.19 123.79-18.08L123.79-18.08L123.79-18.08Q122.78-15.97 121.81-13.96L121.81-13.96L121.81-13.96Q120.85-11.96 120.01-10.17L120.01-10.17L120.01-10.17Q119.17-8.37 118.55-7.06Z" fill="#f45d48"></path></g></g><style>text {
  font-size: 64px;
  font-family: Arial Black;
  dominant-baseline: central;
  text-anchor: middle;
}</style></svg>