<svg width="137.813" height="41.045" viewBox="0 0 137.813 41.045" xmlns="http://www.w3.org/2000/svg"><g id="svgGroup" stroke-linecap="round" fill-rule="evenodd" font-size="9pt" stroke="#000" stroke-width="0.25mm" fill="none" style="stroke:#f45d48;stroke-width:0.25mm;fill:#f45d48"><path d="M 58.755 16.304 L 48.955 39.902 A 2.317 2.317 0 0 1 48.669 40.441 Q 48.238 41.031 47.497 41.045 A 1.918 1.918 0 0 1 47.461 41.045 A 1.418 1.418 0 0 1 46.472 40.648 A 1.909 1.909 0 0 1 46.384 40.562 Q 45.923 40.078 45.923 39.617 A 4.015 4.015 0 0 1 45.935 39.299 Q 45.955 39.042 46.011 38.848 L 48.34 32.827 L 41.572 16.348 A 1.905 1.905 0 0 1 41.482 16.011 Q 41.452 15.841 41.444 15.647 A 3.604 3.604 0 0 1 41.44 15.491 A 1.193 1.193 0 0 1 41.585 14.931 Q 41.699 14.714 41.902 14.502 A 1.747 1.747 0 0 1 42.263 14.207 A 1.281 1.281 0 0 1 42.935 14.019 A 2.138 2.138 0 0 1 43.581 14.11 Q 44.222 14.313 44.531 14.964 A 2.171 2.171 0 0 1 44.561 15.029 L 50.098 28.784 L 55.767 15.073 A 2.147 2.147 0 0 1 56.045 14.569 Q 56.487 13.986 57.261 14.019 A 1.677 1.677 0 0 1 57.867 14.125 A 1.52 1.52 0 0 1 58.425 14.502 A 1.983 1.983 0 0 1 58.688 14.839 Q 58.887 15.167 58.887 15.513 A 3.394 3.394 0 0 1 58.876 15.788 Q 58.854 16.063 58.783 16.241 A 0.817 0.817 0 0 1 58.755 16.304 Z M 37.925 20.918 L 37.925 31.113 A 1.519 1.519 0 0 1 37.458 32.218 A 2.013 2.013 0 0 1 37.419 32.256 A 1.687 1.687 0 0 1 36.211 32.739 A 1.559 1.559 0 0 1 35.084 32.271 A 1.992 1.992 0 0 1 35.068 32.256 A 1.653 1.653 0 0 1 34.698 31.711 A 1.566 1.566 0 0 1 34.585 31.113 L 34.585 30.19 A 8.03 8.03 0 0 1 33.554 31.09 Q 32.869 31.596 31.992 32.058 A 6.843 6.843 0 0 1 30.338 32.659 Q 29.231 32.915 27.861 32.915 A 7.123 7.123 0 0 1 25.834 32.639 A 5.703 5.703 0 0 1 23.687 31.465 A 4.874 4.874 0 0 1 21.983 27.926 A 6.526 6.526 0 0 1 21.973 27.554 A 5.697 5.697 0 0 1 22.3 25.582 A 4.916 4.916 0 0 1 23.994 23.335 Q 26.135 21.708 30.028 21.708 A 18.964 18.964 0 0 1 30.234 21.709 L 34.585 21.709 L 34.585 21.401 Q 34.585 20 34.193 19.071 A 2.933 2.933 0 0 0 33.42 17.974 A 3.56 3.56 0 0 0 32.273 17.324 Q 31.742 17.134 31.082 17.044 A 9.556 9.556 0 0 0 29.795 16.963 A 12.546 12.546 0 0 0 27.935 17.111 Q 26.58 17.315 25.005 17.798 A 1.578 1.578 0 0 1 24.753 17.858 Q 24.627 17.878 24.483 17.884 A 2.96 2.96 0 0 1 24.368 17.886 A 0.851 0.851 0 0 1 24.013 17.804 Q 23.809 17.711 23.599 17.512 A 1.171 1.171 0 0 1 23.317 17.083 Q 23.244 16.9 23.21 16.671 A 2.868 2.868 0 0 1 23.181 16.326 A 1.329 1.329 0 0 1 23.181 16.29 Q 23.181 15.504 24.126 15.117 A 15.084 15.084 0 0 1 30.201 13.841 A 15.51 15.51 0 0 1 30.41 13.843 A 9.512 9.512 0 0 1 32.774 14.12 A 6.519 6.519 0 0 1 36.079 16.084 A 6.816 6.816 0 0 1 37.886 20.208 A 8.953 8.953 0 0 1 37.925 20.918 Z M 77.036 20.918 L 77.036 31.113 A 1.519 1.519 0 0 1 76.57 32.218 A 2.013 2.013 0 0 1 76.531 32.256 A 1.687 1.687 0 0 1 75.322 32.739 A 1.559 1.559 0 0 1 74.195 32.271 A 1.992 1.992 0 0 1 74.18 32.256 A 1.653 1.653 0 0 1 73.81 31.711 A 1.566 1.566 0 0 1 73.696 31.113 L 73.696 30.19 A 8.03 8.03 0 0 1 72.665 31.09 Q 71.98 31.596 71.104 32.058 A 6.843 6.843 0 0 1 69.45 32.659 Q 68.343 32.915 66.973 32.915 A 7.123 7.123 0 0 1 64.945 32.639 A 5.703 5.703 0 0 1 62.798 31.465 A 4.874 4.874 0 0 1 61.094 27.926 A 6.526 6.526 0 0 1 61.084 27.554 A 5.697 5.697 0 0 1 61.411 25.582 A 4.916 4.916 0 0 1 63.106 23.335 Q 65.246 21.708 69.14 21.708 A 18.964 18.964 0 0 1 69.346 21.709 L 73.696 21.709 L 73.696 21.401 Q 73.696 20 73.305 19.071 A 2.933 2.933 0 0 0 72.532 17.974 A 3.56 3.56 0 0 0 71.385 17.324 Q 70.853 17.134 70.193 17.044 A 9.556 9.556 0 0 0 68.906 16.963 A 12.546 12.546 0 0 0 67.046 17.111 Q 65.691 17.315 64.116 17.798 A 1.578 1.578 0 0 1 63.865 17.858 Q 63.738 17.878 63.594 17.884 A 2.96 2.96 0 0 1 63.479 17.886 A 0.851 0.851 0 0 1 63.124 17.804 Q 62.92 17.711 62.71 17.512 A 1.171 1.171 0 0 1 62.428 17.083 Q 62.356 16.9 62.322 16.671 A 2.868 2.868 0 0 1 62.293 16.326 A 1.329 1.329 0 0 1 62.292 16.29 Q 62.292 15.504 63.237 15.117 A 15.084 15.084 0 0 1 69.312 13.841 A 15.51 15.51 0 0 1 69.522 13.843 A 9.512 9.512 0 0 1 71.885 14.12 A 6.519 6.519 0 0 1 75.19 16.084 A 6.816 6.816 0 0 1 76.998 20.208 A 8.953 8.953 0 0 1 77.036 20.918 Z M 1.626 7.427 L 9.844 7.427 A 15.399 15.399 0 0 1 12.697 7.674 Q 14.296 7.976 15.539 8.647 A 7.408 7.408 0 0 1 17.358 10.02 A 7.091 7.091 0 0 1 19.363 14.097 A 9.798 9.798 0 0 1 19.468 15.425 Q 19.468 18.721 17.358 20.83 A 8.086 8.086 0 0 1 13.968 22.853 Q 12.677 23.263 11.111 23.378 A 17.283 17.283 0 0 1 9.844 23.423 L 3.296 23.423 L 3.296 31.113 A 1.559 1.559 0 0 1 2.828 32.241 A 1.992 1.992 0 0 1 2.813 32.256 A 1.61 1.61 0 0 1 1.648 32.739 A 2.031 2.031 0 0 1 1.626 32.739 A 1.559 1.559 0 0 1 0.499 32.271 A 1.992 1.992 0 0 1 0.483 32.256 A 1.653 1.653 0 0 1 0.113 31.711 A 1.566 1.566 0 0 1 0 31.113 L 0 9.097 A 1.627 1.627 0 0 1 0.452 7.966 A 2.112 2.112 0 0 1 0.483 7.932 A 1.68 1.68 0 0 1 0.966 7.574 A 1.497 1.497 0 0 1 1.626 7.427 Z M 86.089 7.734 L 86.089 31.113 Q 86.089 31.772 85.627 32.256 A 1.533 1.533 0 0 1 84.509 32.739 A 2.012 2.012 0 0 1 84.463 32.739 A 1.685 1.685 0 0 1 83.764 32.597 A 1.637 1.637 0 0 1 83.276 32.256 A 1.653 1.653 0 0 1 82.906 31.711 A 1.566 1.566 0 0 1 82.793 31.113 L 82.793 7.734 A 1.677 1.677 0 0 1 82.899 7.128 A 1.52 1.52 0 0 1 83.276 6.57 A 1.649 1.649 0 0 1 84.441 6.109 A 2.132 2.132 0 0 1 84.463 6.108 Q 85.166 6.108 85.627 6.57 A 1.558 1.558 0 0 1 86.087 7.637 A 2.068 2.068 0 0 1 86.089 7.734 Z M 95.581 7.734 L 95.581 31.113 Q 95.581 31.772 95.12 32.256 A 1.533 1.533 0 0 1 94.002 32.739 A 2.012 2.012 0 0 1 93.955 32.739 A 1.685 1.685 0 0 1 93.256 32.597 A 1.637 1.637 0 0 1 92.769 32.256 A 1.653 1.653 0 0 1 92.399 31.711 A 1.566 1.566 0 0 1 92.285 31.113 L 92.285 7.734 A 1.677 1.677 0 0 1 92.391 7.128 A 1.52 1.52 0 0 1 92.769 6.57 A 1.649 1.649 0 0 1 93.933 6.109 A 2.132 2.132 0 0 1 93.955 6.108 Q 94.658 6.108 95.12 6.57 A 1.558 1.558 0 0 1 95.579 7.637 A 2.068 2.068 0 0 1 95.581 7.734 Z M 3.296 20.347 L 9.536 20.347 A 13.628 13.628 0 0 0 11.453 20.222 Q 13.692 19.902 14.892 18.77 A 4.189 4.189 0 0 0 14.898 18.765 A 3.941 3.941 0 0 0 16.112 16.402 Q 16.183 15.939 16.172 15.425 Q 16.172 12.677 13.911 11.446 A 6.503 6.503 0 0 0 12.832 10.986 A 8.247 8.247 0 0 0 11.658 10.696 Q 10.714 10.529 9.536 10.503 L 3.296 10.503 L 3.296 20.347 Z M 34.585 27.378 L 34.585 24.346 L 30.718 24.346 A 16.573 16.573 0 0 0 29.232 24.408 Q 27.741 24.543 26.752 24.968 A 4.94 4.94 0 0 0 26.719 24.983 A 2.74 2.74 0 0 0 25.946 25.476 Q 25.353 26.028 25.279 26.902 A 3.032 3.032 0 0 0 25.269 27.158 A 3.084 3.084 0 0 0 25.523 28.458 Q 26.24 30.015 28.979 30.015 A 9.854 9.854 0 0 0 29.092 30.015 A 6.4 6.4 0 0 0 32.234 29.202 A 10.442 10.442 0 0 0 33.409 28.452 Q 34.091 27.946 34.585 27.378 Z M 73.696 27.378 L 73.696 24.346 L 69.829 24.346 A 16.573 16.573 0 0 0 68.343 24.408 Q 66.852 24.543 65.863 24.968 A 4.94 4.94 0 0 0 65.83 24.983 A 2.74 2.74 0 0 0 65.058 25.476 Q 64.465 26.028 64.391 26.902 A 3.032 3.032 0 0 0 64.38 27.158 A 3.084 3.084 0 0 0 64.634 28.458 Q 65.351 30.015 68.09 30.015 A 9.854 9.854 0 0 0 68.203 30.015 A 6.4 6.4 0 0 0 71.345 29.202 A 10.442 10.442 0 0 0 72.52 28.452 Q 73.202 27.946 73.696 27.378 Z M 110.347 19.512 L 106.523 20.171 A 17.573 17.573 0 0 1 106.181 17.154 A 19.881 19.881 0 0 1 106.172 16.567 A 18.558 18.558 0 0 1 106.523 12.92 L 110.347 13.623 A 12.545 12.545 0 0 0 109.995 16.589 A 12.005 12.005 0 0 0 110.347 19.512 Z M 132.583 22.808 L 135.703 25.093 Q 133.77 28.257 130.737 30.234 L 128.54 26.938 Q 131.045 25.4 132.583 22.808 Z M 135.703 7.998 L 132.583 10.283 A 12.257 12.257 0 0 0 128.54 6.108 L 130.737 2.856 Q 133.857 4.922 135.703 7.998 Z M 115.444 26.938 L 113.291 30.234 A 15.437 15.437 0 0 1 108.325 25.093 L 111.533 22.808 Q 112.939 25.4 115.444 26.938 Z M 113.291 2.856 L 115.444 6.108 Q 112.939 7.69 111.533 10.283 L 108.325 7.998 A 16.616 16.616 0 0 1 113.291 2.856 Z M 133.726 13.623 L 137.461 12.92 A 19.476 19.476 0 0 1 137.807 16.083 A 17.748 17.748 0 0 1 137.813 16.523 Q 137.813 18.281 137.461 20.171 L 133.726 19.512 A 13.639 13.639 0 0 0 134.033 16.589 A 14.256 14.256 0 0 0 133.726 13.623 Z M 124.849 28.74 L 125.464 32.695 A 17.018 17.018 0 0 1 122.036 33.047 A 18.096 18.096 0 0 1 118.97 32.778 A 20.218 20.218 0 0 1 118.521 32.695 L 119.18 28.74 Q 120.542 29.136 122.014 29.136 Q 123.486 29.136 124.849 28.74 Z M 125.464 0.483 L 124.849 4.351 A 12.832 12.832 0 0 0 122.014 4.043 A 12.832 12.832 0 0 0 119.18 4.351 L 118.521 0.483 A 13.976 13.976 0 0 1 121.174 0.03 A 12.414 12.414 0 0 1 122.036 0 A 12.576 12.576 0 0 1 125.464 0.483 Z" vector-effect="non-scaling-stroke"/></g></svg>